<svg width="350" height="300" viewBox="0 0 350 300" fill="none" xmlns="http://www.w3.org/2000/svg">
<path d="M169 251V49.5C143.5 37.5 129 52 123 59C73 27 59.5 75 57.5 85C5 102 30 142.5 39 151.5C1.5 199.5 53 218 57.5 219.5C68.5 264 103 261.5 123 244C141.8 261.6 161.5 256 169 251Z" fill="#0B0F14"/>
<path d="M181 250.095V48.5949C206.5 36.5949 221 51.0949 227 58.0949C277 26.0949 290.5 74.0949 292.5 84.0949C345 101.095 320 141.595 311 150.595C348.5 198.595 297 217.095 292.5 218.595C281.5 263.095 247 260.595 227 243.095C208.2 260.695 188.5 255.095 181 250.095Z" fill="#0B0F14"/>
<path d="M287.345 102.529C291.388 94.5945 292.467 85.4775 290.389 76.8182C288.31 68.1589 283.209 60.5256 276.005 55.2912C268.8 50.0567 259.964 47.5647 251.086 48.2634C242.208 48.9622 233.871 52.8057 227.574 59.1027" stroke="#E6F0FF" stroke-width="6"/>
<path d="M234.987 74.6251C233.76 68.8518 231.184 63.4508 227.47 58.8639C223.755 54.2769 219.008 50.6342 213.616 48.2335C208.224 45.8328 202.34 44.7424 196.446 45.0513C190.552 45.3602 184.814 47.0597 179.703 50.0108" stroke="#E6F0FF" stroke-width="6"/>
<path d="M298.338 158.045C306.372 155.589 313.345 150.499 318.134 143.596C322.923 136.694 325.248 128.38 324.735 119.994C324.222 111.609 320.901 103.641 315.307 97.373C309.713 91.1053 302.171 86.9036 293.898 85.4447" stroke="#E6F0FF" stroke-width="6"/>
<path d="M291.42 215.45C291.42 224.456 288.17 233.16 282.267 239.963C276.364 246.765 268.205 251.209 259.288 252.478C250.372 253.747 241.297 251.756 233.731 246.871C226.164 241.985 220.615 234.533 218.102 225.885" stroke="#E6F0FF" stroke-width="6"/>
<path d="M274.916 213.977C283.311 216.95 292.491 216.83 300.805 213.639C309.118 210.447 316.021 204.394 320.27 196.568C324.519 188.742 325.837 179.656 323.985 170.945C322.134 162.234 317.235 154.47 310.17 149.049" stroke="#E6F0FF" stroke-width="6"/>
<path d="M179.701 250.989C187.413 255.441 196.461 256.996 205.217 255.373C213.973 253.75 221.863 249.056 227.467 242.135" stroke="#E6F0FF" stroke-width="6"/>
<path d="M181.2 47.415L181.2 253.585" stroke="#E6F0FF" stroke-width="6"/>
<line x1="188" y1="149" x2="237" y2="149" stroke="#93C5FD" stroke-width="2"/>
<line x1="207" y1="99" x2="269" y2="99" stroke="#93C5FD" stroke-width="2"/>
<line x1="189" y1="202" x2="189" y2="150" stroke="#93C5FD" stroke-width="2"/>
<path d="M190 201H200" stroke="#93C5FD" stroke-width="2"/>
<line x1="199" y1="202" x2="199" y2="216" stroke="#93C5FD" stroke-width="2"/>
<line x1="236" y1="149" x2="236" y2="100" stroke="#93C5FD" stroke-width="2"/>
<line x1="265" y1="224" x2="265" y2="182" stroke="#93C5FD" stroke-width="2"/>
<line x1="298" y1="183" x2="266" y2="183" stroke="#93C5FD" stroke-width="2"/>
<line x1="206" y1="100" x2="206" y2="81" stroke="#93C5FD" stroke-width="2"/>
<line x1="268" y1="100" x2="268" y2="88" stroke="#93C5FD" stroke-width="2"/>
<circle cx="10" cy="10" r="10" transform="matrix(-1 0 0 1 278.6 69)" fill="#3B82F6"/>
<circle cx="10" cy="10" r="10" transform="matrix(-1 0 0 1 216.6 62)" fill="#3B82F6"/>
<circle cx="10" cy="10" r="10" transform="matrix(-1 0 0 1 208.6 215)" fill="#3B82F6"/>
<circle cx="10" cy="10" r="10" transform="matrix(-1 0 0 1 275.6 222)" fill="#3B82F6"/>
<circle cx="10" cy="10" r="10" transform="matrix(-1 0 0 1 317.6 172)" fill="#3B82F6"/>
<line x1="281" y1="191.5" x2="197" y2="191.5" stroke="#E6F0FF" stroke-width="6"/>
<line y1="-3" x2="88" y2="-3" transform="matrix(0 -1 -1 0 197 194.5)" stroke="#E6F0FF" stroke-width="6"/>
<path d="M62.4592 102.529C58.4163 94.5945 57.3372 85.4775 59.4161 76.8182C61.495 68.1589 66.5955 60.5256 73.8 55.2912C81.0046 50.0567 89.8405 47.5647 98.7184 48.2634C107.596 48.9622 115.934 52.8057 122.231 59.1027" stroke="#E6F0FF" stroke-width="6"/>
<path d="M114.817 74.6251C116.044 68.8518 118.621 63.4508 122.335 58.8639C126.049 54.2769 130.797 50.6342 136.189 48.2335C141.581 45.8328 147.464 44.7424 153.359 45.0513C159.253 45.3602 164.99 47.0597 170.102 50.0108" stroke="#E6F0FF" stroke-width="6"/>
<path d="M51.4661 158.045C43.4322 155.589 36.4592 150.499 31.6706 143.596C26.8821 136.694 24.5569 128.38 25.0697 119.994C25.5826 111.609 28.9037 103.641 34.4978 97.373C40.0918 91.1053 47.6332 86.9036 55.9066 85.4447" stroke="#E6F0FF" stroke-width="6"/>
<path d="M58.3849 218.45C58.3849 227.456 61.6348 236.16 67.5376 242.963C73.4404 249.765 81.5996 254.209 90.5162 255.478C99.4328 256.747 108.508 254.756 116.074 249.871C123.64 244.985 129.19 237.533 131.702 228.885" stroke="#E6F0FF" stroke-width="6"/>
<path d="M74.8882 216.977C66.4936 219.95 57.3138 219.83 49 216.639C40.6861 213.447 33.7838 207.394 29.5345 199.568C25.2853 191.742 23.9679 182.656 25.8195 173.945C27.671 165.234 32.5699 157.47 39.635 152.049" stroke="#E6F0FF" stroke-width="6"/>
<path d="M170.102 251.022C162.971 255.139 154.682 256.787 146.519 255.713C138.356 254.638 130.776 250.9 124.955 245.078" stroke="#E6F0FF" stroke-width="6"/>
<path d="M168.605 47.415V253.585" stroke="#E6F0FF" stroke-width="6"/>
<line x1="82" y1="88" x2="82" y2="96" stroke="#93C5FD" stroke-width="2"/>
<line x1="81" y1="95" x2="111" y2="95" stroke="#93C5FD" stroke-width="2"/>
<line x1="58" y1="158" x2="101" y2="158" stroke="#93C5FD" stroke-width="2"/>
<line x1="52" y1="181" x2="59" y2="181" stroke="#93C5FD" stroke-width="2"/>
<line x1="131" y1="155" x2="162" y2="155" stroke="#93C5FD" stroke-width="2"/>
<line x1="133" y1="224" x2="142" y2="224" stroke="#93C5FD" stroke-width="2"/>
<line x1="93" y1="231" x2="101" y2="231" stroke="#93C5FD" stroke-width="2"/>
<line x1="152" y1="71" x2="161" y2="71" stroke="#93C5FD" stroke-width="2"/>
<line x1="110" y1="148" x2="110" y2="96" stroke="#93C5FD" stroke-width="2"/>
<path d="M59 182L59 159" stroke="#93C5FD" stroke-width="2"/>
<line x1="100" y1="232" x2="100" y2="159" stroke="#93C5FD" stroke-width="2"/>
<line x1="132" y1="225" x2="132" y2="156" stroke="#93C5FD" stroke-width="2"/>
<line x1="161" y1="155" x2="161" y2="70" stroke="#93C5FD" stroke-width="2"/>
<circle cx="81" cy="79" r="10" fill="#3B82F6"/>
<circle cx="143" cy="72" r="10" fill="#3B82F6"/>
<circle cx="151" cy="225" r="10" fill="#3B82F6"/>
<circle cx="84" cy="232" r="10" fill="#3B82F6"/>
<circle cx="42" cy="182" r="10" fill="#3B82F6"/>
<line x1="71.6" y1="193.5" x2="71.6" y2="113.5" stroke="#E6F0FF" stroke-width="6"/>
<line x1="149.6" y1="193.5" x2="149.6" y2="113.5" stroke="#E6F0FF" stroke-width="6"/>
<path d="M71.1 112.25C86.721 127.871 94.979 136.129 110.6 151.75C126.221 136.129 134.479 127.871 150.1 112.25" stroke="#E6F0FF" stroke-width="6"/>
<path d="M71.4789 110.5L70.1 111.879V109.121L71.4789 110.5Z" fill="black" stroke="#E6F0FF" stroke-width="3"/>
<path d="M149.721 110.5L151.1 111.879V109.121L149.721 110.5Z" fill="black" stroke="#E6F0FF" stroke-width="3"/>
</svg>
